<svg xmlns="http://www.w3.org/2000/svg" viewBox="0 0 880 470" width="880" role="img"
  aria-label="Akinchan's kitchen: the microwave has cooked 811 commits; the fridge runs the build; a dog wearing a QA tag sits in front of the microwave, drooling over the next release. Compiled hot, served cold.">
  <title>compiled hot · served cold</title>
  <style>
    text { font-family: ui-monospace,'SF Mono',Menlo,Consolas,'Liberation Mono',monospace; }
    .dg { font-size: 21px; font-weight: 700; fill: #3fd47f; text-anchor: middle; }
    .tm { font-size: 9px; }
    @keyframes rollin { from { transform: translateY(0); } }
    @keyframes typeslide { from { transform: translateX(0); } }
    @keyframes blink { 0%, 45% { opacity: 1; } 50%, 100% { opacity: 0; } }
    @keyframes breathe { 0%, 100% { opacity: .45; } 50% { opacity: .9; } }
    @keyframes warmpulse { 0%, 100% { opacity: .55; } 50% { opacity: 1; } }
    @keyframes floaty {
      0% { opacity: 0; transform: translateY(0); }
      18% { opacity: .95; }
      75%, 100% { opacity: 0; transform: translateY(-26px); }
    }
    @keyframes steam {
      0% { opacity: 0; transform: translateY(4px); }
      30% { opacity: .6; }
      75%, 100% { opacity: 0; transform: translateY(-18px); }
    }
    @keyframes blip { 0%, 70% { opacity: 1; } 75%, 95% { opacity: .15; } 100% { opacity: 1; } }
    @keyframes flow { to { stroke-dashoffset: -14; } }
    @keyframes ding {
      0% { opacity: 0; transform: scale(.5); }
      3% { opacity: 1; transform: scale(1.18); }
      6% { transform: scale(1); }
      20% { opacity: 1; transform: scale(1); }
      27%, 100% { opacity: 0; transform: translateY(-8px); }
    }
    .pop { transform-box: fill-box; transform-origin: center; }
    @keyframes rumble {
      0%, 24%, 50%, 70%, 100% { transform: translate(0,0); }
      4% { transform: translate(-.7px,.4px); } 8% { transform: translate(.6px,-.3px); }
      12% { transform: translate(-.5px,.5px); } 16% { transform: translate(.7px,.2px); }
      20% { transform: translate(-.4px,-.4px); }
      54% { transform: translate(.6px,-.4px); } 58% { transform: translate(-.6px,.3px); }
      62% { transform: translate(.5px,.4px); } 66% { transform: translate(-.7px,-.2px); }
    }
    .rumble { animation: rumble 3.6s linear infinite; }
    @keyframes sway { 0%, 100% { transform: translateX(-8px); } 50% { transform: translateX(8px); } }
    .sway { animation: sway 6.5s ease-in-out infinite; }
    @keyframes slip {
      0%, 58% { transform: translate(0,0) rotate(0); }
      61% { transform: translate(0,6px) rotate(15deg); }
      63%, 88% { transform: translate(0,5px) rotate(13deg); }
      92% { transform: translate(0,-1.5px) rotate(-3deg); }
      95%, 100% { transform: translate(0,0) rotate(0); }
    }
    .slip { animation: slip 12s ease-in-out 5s infinite; transform-box: fill-box; transform-origin: 30% 15%; }
    @keyframes flutter { 0%, 100% { transform: rotate(0); } 50% { transform: rotate(2.6deg); } }
    .flutter { animation: flutter 3.4s ease-in-out infinite; transform-box: fill-box; transform-origin: 50% 0%; }
    @keyframes rattle {
      0%, 70%, 82%, 100% { transform: rotate(0); }
      72% { transform: rotate(-4deg); } 75% { transform: rotate(3.2deg); }
      78% { transform: rotate(-2.4deg); } 80% { transform: rotate(1.6deg); }
    }
    .rattle { animation: rattle 8.5s linear 1.2s infinite; transform-box: fill-box; transform-origin: 50% 100%; }
    @keyframes puff {
      0%, 100% { opacity: 0; transform: translate(0,0) scale(.6); }
      6% { opacity: .55; }
      22% { opacity: 0; transform: translate(-16px,7px) scale(1.7); }
      23% { transform: translate(0,0) scale(.6); }
    }
    .puff { transform-box: fill-box; transform-origin: center; }
    @keyframes wag { 0%, 100% { transform: rotate(-10deg); } 50% { transform: rotate(16deg); } }
    .wag { animation: wag .8s ease-in-out infinite; transform-box: fill-box; transform-origin: 0% 50%; }
    @keyframes drip {
      0% { opacity: 0; transform: translate(0,0) scale(.4); }
      10% { opacity: .9; transform: translate(0,1px) scale(.75); }
      32% { transform: translate(0,3px) scale(1); }
      40% { transform: translate(0,10px) scale(1); }
      54% { transform: translate(0,68px) scale(1); }
      56%, 100% { opacity: 0; transform: translate(0,68px) scale(1); }
    }
    .drip { animation: drip 3.2s linear infinite; transform-box: fill-box; transform-origin: center; }
    @keyframes splashy { 0%, 52% { opacity: 0; transform: scaleX(.4); } 57% { opacity: .7; transform: scaleX(1); } 66%, 100% { opacity: 0; transform: scaleX(1.5); } }
    .splash { animation: splashy 3.2s linear infinite; transform-box: fill-box; transform-origin: center; }
    @keyframes tagswing { 0%, 100% { transform: rotate(-5deg); } 50% { transform: rotate(5deg); } }
    .tagswing { animation: tagswing 2.4s ease-in-out infinite; transform-box: fill-box; transform-origin: 50% 0%; }
    @keyframes dogbreathe { 0%, 100% { transform: scaleY(1); } 50% { transform: scaleY(1.015); } }
    .dogbreathe { animation: dogbreathe 3.2s ease-in-out infinite; transform-box: fill-box; transform-origin: 50% 100%; }
    /* reduce-motion: stop all movement, keep gentle opacity fades (glow, LED, cursor) */
    @media (prefers-reduced-motion: reduce) { [style*="rollin"], [style*="typeslide"], [style*="floaty"], [style*="steam"], [style*="ding"], [style*="puff"], [style*="flow"], .rumble, .sway, .slip, .flutter, .rattle, .wag, .drip, .splash, .tagswing, .dogbreathe { animation: none !important; } }
  </style>

  <defs>
    <linearGradient id="body" x1="0" y1="0" x2="0" y2="1">
      <stop offset="0" stop-color="#f3f5f7"/><stop offset="1" stop-color="#e2e7ec"/>
    </linearGradient>
    <radialGradient id="heat" cx=".5" cy=".55" r=".65">
      <stop offset="0" stop-color="#ffa657" stop-opacity=".85"/>
      <stop offset=".55" stop-color="#ffa657" stop-opacity=".28"/>
      <stop offset="1" stop-color="#ffa657" stop-opacity="0"/>
    </radialGradient>
    <clipPath id="glassClip"><rect x="122" y="180" width="176" height="92" rx="6"/></clipPath>
    <clipPath id="displayClip"><rect x="329" y="183" width="88" height="28"/></clipPath>
    <clipPath id="termClip"><rect x="604" y="202" width="144" height="94" rx="5"/></clipPath>
  </defs>

  <!-- floor -->
  <line x1="48" y1="436" x2="832" y2="436" stroke="#7a8794" stroke-width="1.5" opacity=".5"/>
  <ellipse cx="272" cy="437" rx="205" ry="6" fill="rgba(31,35,40,.16)"/>
  <ellipse cx="667" cy="437" rx="118" ry="6" fill="rgba(31,35,40,.16)"/>

  <!-- cable: microwave output piped into the fridge (runs behind the QA department) -->
  <path d="M440,262 C462,262 468,278 470,300 C471,348 473,398 488,414 C505,430 536,421 558,416"
    fill="none" stroke="#9aa6b2" stroke-width="4" stroke-linecap="round"/>
  <path d="M440,262 C462,262 468,278 470,300 C471,348 473,398 488,414 C505,430 536,421 558,416"
    fill="none" stroke="#1f883d" stroke-width="2" stroke-linecap="round"
    stroke-dasharray="5 9" style="animation:flow .8s linear infinite"/>

  <!-- counter -->
  <rect x="84" y="307" width="376" height="123" fill="#e8edf1" stroke="#8c98a4" stroke-width="1.5"/>
  <rect x="72" y="294" width="400" height="13" rx="3" fill="#c9d2da" stroke="#8c98a4" stroke-width="1.5"/>
  <line x1="84" y1="348" x2="460" y2="348" stroke="#8c98a4" stroke-width="1.2"/>
  <rect x="248" y="325" width="48" height="5" rx="2.5" fill="#8c98a4"/>
  <line x1="272" y1="348" x2="272" y2="430" stroke="#8c98a4" stroke-width="1.2"/>
  <circle cx="258" cy="388" r="4" fill="#8c98a4"/>
  <circle cx="286" cy="388" r="4" fill="#8c98a4"/>

  <!-- spice shelf: syntax seasonings -->
  <rect x="148" y="116" width="180" height="8" rx="2" fill="#c9d2da" stroke="#8c98a4" stroke-width="1"/>
  <path d="M166,124 v9 l9,-9 z" fill="#8c98a4"/>
  <path d="M310,124 v9 l-9,-9 z" fill="#8c98a4"/>
  
  <g>
    <rect x="180" y="84" width="18" height="7" rx="2" fill="#8c98a4"/>
    <rect x="178" y="90" width="22" height="26" rx="3" fill="#eef1f4" stroke="#9aa6b2" stroke-width="1"/>
    <text x="189" y="107" text-anchor="middle" font-size="10" font-weight="700" fill="#4b5663">;</text>
  </g>
  <g class="rattle">
    <rect x="220" y="84" width="18" height="7" rx="2" fill="#8c98a4"/>
    <rect x="218" y="90" width="22" height="26" rx="3" fill="#eef1f4" stroke="#9aa6b2" stroke-width="1"/>
    <text x="229" y="107" text-anchor="middle" font-size="7.5" font-weight="700" fill="#4b5663">{ }</text>
  </g>
  <g>
    <rect x="260" y="84" width="18" height="7" rx="2" fill="#8c98a4"/>
    <rect x="258" y="90" width="22" height="26" rx="3" fill="#eef1f4" stroke="#9aa6b2" stroke-width="1"/>
    <text x="269" y="107" text-anchor="middle" font-size="10" font-weight="700" fill="#4b5663">#</text>
  </g>

  <!-- ==================== microwave (it's running) ==================== -->
  <g class="rumble">
  <rect x="100" y="158" width="340" height="136" rx="14" fill="url(#body)" stroke="#7a8794" stroke-width="2"/>

  <!-- door -->
  <rect x="114" y="172" width="192" height="108" rx="9" fill="#e2e7ec" stroke="#7a8794" stroke-width="1.5"/>
  <rect x="122" y="180" width="176" height="92" rx="6" fill="#1b2129" stroke="#5b6773" stroke-width="1.5"/>
  <g clip-path="url(#glassClip)">
    <ellipse cx="210" cy="248" rx="85" ry="48" fill="url(#heat)" style="animation:breathe 3.8s ease-in-out infinite"/>
    <ellipse cx="210" cy="262" rx="62" ry="7" fill="#2b333e" stroke="#5b6773" stroke-width="1"/>
    <g class="sway">
      <path d="M182,244 Q182,262 210,262 Q238,262 238,244 Z" fill="#8b99a8"/>
      <ellipse cx="210" cy="244" rx="28" ry="4.5" fill="#a5b2c0"/>
      <!-- brace soup -->
      <text x="196" y="238" font-size="13" font-weight="700" fill="#ffa657" opacity="0" style="animation:floaty 4.2s ease-out infinite">{</text>
      <text x="224" y="238" font-size="13" font-weight="700" fill="#ffa657" opacity="0" style="animation:floaty 4.2s ease-out 1.4s infinite">}</text>
      <text x="211" y="238" font-size="13" font-weight="700" fill="#ffa657" opacity="0" style="animation:floaty 4.2s ease-out 2.8s infinite">;</text>
      <path d="M198,230 q-4,-7 0,-13 q4,-6 0,-12" fill="none" stroke="#ffa657" stroke-width="1.8" stroke-linecap="round" opacity="0" style="animation:steam 3.6s ease-out .5s infinite"/>
      <path d="M223,230 q4,-7 0,-13 q-4,-6 0,-12" fill="none" stroke="#ffa657" stroke-width="1.8" stroke-linecap="round" opacity="0" style="animation:steam 3.6s ease-out 2.2s infinite"/>
    </g>
  </g>
  <rect x="299" y="180" width="6" height="92" rx="3" fill="#8c98a4"/>

  <!-- control panel -->
  <rect x="318" y="172" width="110" height="110" rx="8" fill="#dbe1e8" stroke="#7a8794" stroke-width="1.5"/>
  <rect x="326" y="180" width="94" height="34" rx="5" fill="#171c22" stroke="#0a0d10" stroke-width="1.5"/>
  <g clip-path="url(#displayClip)" style="filter:drop-shadow(0 0 5px rgba(46,160,67,.45))">
    <g style="transform:translateY(-432px);animation:rollin 1.6s cubic-bezier(.19,.68,.26,1) 0.50s both"><text x="359.5" y="203" class="dg">0</text><text x="359.5" y="227" class="dg">1</text><text x="359.5" y="251" class="dg">2</text><text x="359.5" y="275" class="dg">3</text><text x="359.5" y="299" class="dg">4</text><text x="359.5" y="323" class="dg">5</text><text x="359.5" y="347" class="dg">6</text><text x="359.5" y="371" class="dg">7</text><text x="359.5" y="395" class="dg">8</text><text x="359.5" y="419" class="dg">9</text><text x="359.5" y="443" class="dg">0</text><text x="359.5" y="467" class="dg">1</text><text x="359.5" y="491" class="dg">2</text><text x="359.5" y="515" class="dg">3</text><text x="359.5" y="539" class="dg">4</text><text x="359.5" y="563" class="dg">5</text><text x="359.5" y="587" class="dg">6</text><text x="359.5" y="611" class="dg">7</text><text x="359.5" y="635" class="dg">8</text><text x="359.5" y="659" class="dg">9</text></g><g style="transform:translateY(-264px);animation:rollin 1.6s cubic-bezier(.19,.68,.26,1) 0.63s both"><text x="373.0" y="203" class="dg">0</text><text x="373.0" y="227" class="dg">1</text><text x="373.0" y="251" class="dg">2</text><text x="373.0" y="275" class="dg">3</text><text x="373.0" y="299" class="dg">4</text><text x="373.0" y="323" class="dg">5</text><text x="373.0" y="347" class="dg">6</text><text x="373.0" y="371" class="dg">7</text><text x="373.0" y="395" class="dg">8</text><text x="373.0" y="419" class="dg">9</text><text x="373.0" y="443" class="dg">0</text><text x="373.0" y="467" class="dg">1</text><text x="373.0" y="491" class="dg">2</text><text x="373.0" y="515" class="dg">3</text><text x="373.0" y="539" class="dg">4</text><text x="373.0" y="563" class="dg">5</text><text x="373.0" y="587" class="dg">6</text><text x="373.0" y="611" class="dg">7</text><text x="373.0" y="635" class="dg">8</text><text x="373.0" y="659" class="dg">9</text></g><g style="transform:translateY(-264px);animation:rollin 1.6s cubic-bezier(.19,.68,.26,1) 0.76s both"><text x="386.5" y="203" class="dg">0</text><text x="386.5" y="227" class="dg">1</text><text x="386.5" y="251" class="dg">2</text><text x="386.5" y="275" class="dg">3</text><text x="386.5" y="299" class="dg">4</text><text x="386.5" y="323" class="dg">5</text><text x="386.5" y="347" class="dg">6</text><text x="386.5" y="371" class="dg">7</text><text x="386.5" y="395" class="dg">8</text><text x="386.5" y="419" class="dg">9</text><text x="386.5" y="443" class="dg">0</text><text x="386.5" y="467" class="dg">1</text><text x="386.5" y="491" class="dg">2</text><text x="386.5" y="515" class="dg">3</text><text x="386.5" y="539" class="dg">4</text><text x="386.5" y="563" class="dg">5</text><text x="386.5" y="587" class="dg">6</text><text x="386.5" y="611" class="dg">7</text><text x="386.5" y="635" class="dg">8</text><text x="386.5" y="659" class="dg">9</text></g>
  </g>
  <text x="373" y="226" text-anchor="middle" font-size="7" letter-spacing="1.8" fill="#1a7f37">COMMITS COOKED</text>
  
      <rect x="326" y="234" width="29" height="13" rx="3" fill="#eef1f4" stroke="#9aa6b2" stroke-width="1"/>
      <text x="340.5" y="243" text-anchor="middle" font-family="ui-monospace,'SF Mono',Menlo,Consolas,'Liberation Mono',monospace" font-size="5.8" letter-spacing=".5" fill="#4b5663">PUSH</text>
      <rect x="358.5" y="234" width="29" height="13" rx="3" fill="#eef1f4" stroke="#9aa6b2" stroke-width="1"/>
      <text x="373" y="243" text-anchor="middle" font-family="ui-monospace,'SF Mono',Menlo,Consolas,'Liberation Mono',monospace" font-size="5.8" letter-spacing=".5" fill="#4b5663">PULL</text>
      <rect x="391" y="234" width="29" height="13" rx="3" fill="#eef1f4" stroke="#9aa6b2" stroke-width="1"/>
      <text x="405.5" y="243" text-anchor="middle" font-family="ui-monospace,'SF Mono',Menlo,Consolas,'Liberation Mono',monospace" font-size="5.8" letter-spacing=".5" fill="#4b5663">SYNC</text>
  <rect x="326" y="252" width="94" height="13" rx="3" fill="none" stroke="#d4681e" stroke-width="1.2" style="animation:warmpulse 3s ease-in-out infinite"/>
  <text x="373" y="261.5" text-anchor="middle" font-size="6.8" letter-spacing="1.6" fill="#d4681e" style="animation:warmpulse 3s ease-in-out infinite">HOT RELOAD</text>
  <rect x="326" y="269" width="94" height="13" rx="3" fill="#1f883d" stroke="#1a7f37" stroke-width="1"/>
  <text x="373" y="278.5" text-anchor="middle" font-size="6.8" letter-spacing="2" fill="#ffffff">SHIP IT</text>
  </g>

  <!-- ding! (it will not stop dinging) -->
  <g transform="translate(452,144) rotate(-8)">
    <text x="0" y="0" font-size="13" font-weight="700" fill="#b58a00" opacity="0" class="pop" style="animation:ding 9s ease-out 2.6s infinite">✦ ding!</text>
  </g>

  <!-- ==================== fridge ==================== -->
  <rect x="576" y="426" width="20" height="8" rx="2" fill="#b3bec8"/>
  <rect x="738" y="426" width="20" height="8" rx="2" fill="#b3bec8"/>
  <rect x="560" y="76" width="214" height="350" rx="16" fill="url(#body)" stroke="#7a8794" stroke-width="2"/>
  <line x1="561" y1="168" x2="773" y2="168" stroke="#7a8794" stroke-width="2"/>
  <rect x="574" y="94" width="8" height="56" rx="4" fill="#8c98a4"/>
  <rect x="574" y="184" width="8" height="116" rx="4" fill="#8c98a4"/>

  <g transform="translate(612,98) rotate(-7,11,11)">
      <g>
        <rect width="22" height="22" rx="5" fill="#0969da"/>
        <text x="11" y="15.5" text-anchor="middle" font-family="ui-monospace,'SF Mono',Menlo,Consolas,'Liberation Mono',monospace" font-size="12.5" font-weight="700" fill="#ffffff">S</text>
      </g>
    </g><g transform="translate(642,98) rotate(5,11,11)">
      <g>
        <rect width="22" height="22" rx="5" fill="#cf222e"/>
        <text x="11" y="15.5" text-anchor="middle" font-family="ui-monospace,'SF Mono',Menlo,Consolas,'Liberation Mono',monospace" font-size="12.5" font-weight="700" fill="#ffffff">U</text>
      </g>
    </g><g transform="translate(672,98) rotate(-4,11,11)">
      <g>
        <rect width="22" height="22" rx="5" fill="#bf8700"/>
        <text x="11" y="15.5" text-anchor="middle" font-family="ui-monospace,'SF Mono',Menlo,Consolas,'Liberation Mono',monospace" font-size="12.5" font-weight="700" fill="#ffffff">D</text>
      </g>
    </g><g transform="translate(702,98) rotate(8,11,11)">
      <g class="slip">
        <rect width="22" height="22" rx="5" fill="#1a7f37"/>
        <text x="11" y="15.5" text-anchor="middle" font-family="ui-monospace,'SF Mono',Menlo,Consolas,'Liberation Mono',monospace" font-size="12.5" font-weight="700" fill="#ffffff">O</text>
      </g>
    </g>
  <text x="666" y="152" text-anchor="middle" font-size="7" letter-spacing="2" fill="#59636e">❄ COLD STORAGE</text>

  <!-- smart screen: the fridge runs the build -->
  <rect x="598" y="196" width="156" height="106" rx="9" fill="#c4cdd6" stroke="#7a8794" stroke-width="1.5"/>
  <rect x="604" y="202" width="144" height="94" rx="5" fill="#14181d"/>
  <g clip-path="url(#termClip)">
    <text x="612" y="220" class="tm" fill="#56d364">$ cold-boot</text><text x="612" y="238" class="tm" fill="#aebfce">fridgeOS ready <tspan fill="#79c0ff">❄</tspan></text><text x="612" y="256" class="tm" fill="#56d364">$ run brace_soup.bin</text><text x="612" y="274" class="tm" fill="#aebfce">exit 0 · served cold</text><rect x="608" y="209" width="142" height="15" fill="#14181d"
      style="transform:translateX(148px);animation:typeslide 0.7s steps(11) 0.7s both"/><rect x="608" y="227" width="142" height="15" fill="#14181d"
      style="transform:translateX(148px);animation:typeslide 0.9s steps(16) 1.9s both"/><rect x="608" y="245" width="142" height="15" fill="#14181d"
      style="transform:translateX(148px);animation:typeslide 1.1s steps(20) 3.2s both"/><rect x="608" y="263" width="142" height="15" fill="#14181d"
      style="transform:translateX(148px);animation:typeslide 1s steps(20) 4.7s both"/><rect x="724" y="265" width="6" height="10" fill="#56d364" opacity="0"
       style="animation:blink 1.1s step-end infinite 5.9s"/>
  </g>

  <!-- sticky note -->
  <g transform="translate(640,318) rotate(-5)">
    <g class="flutter">
      <rect width="66" height="50" rx="2" fill="#f2d05c"/>
      <rect x="18" y="-5" width="30" height="9" fill="rgba(0,0,0,.12)"/>
      <text x="8" y="18" font-size="8.5" font-weight="700" fill="#4a3b09">TODO:</text>
      <text x="8" y="31" font-size="8.5" fill="#4a3b09">defrost</text>
      <text x="8" y="42" font-size="8.5" fill="#4a3b09">prod</text>
    </g>
  </g>

  <!-- the freezer leaks a little cold -->
  <g class="puff" opacity="0" style="animation:puff 7.4s linear infinite">
    <circle cx="563" cy="168" r="3.5" fill="#54aeff"/>
    <circle cx="557" cy="171" r="2.5" fill="#54aeff"/>
    <circle cx="568" cy="172" r="2" fill="#54aeff"/>
  </g>
  <g class="puff" opacity="0" style="animation:puff 7.4s linear 3.7s infinite">
    <circle cx="564" cy="165" r="2.5" fill="#54aeff"/>
    <circle cx="558" cy="168" r="3" fill="#54aeff"/>
  </g>

  <circle cx="752" cy="408" r="3" fill="#1f883d" style="animation:blip 2.4s linear infinite"/>

  
  <!-- QA -->
  <g transform="translate(430,320)">
    <ellipse cx="38" cy="117" rx="46" ry="5" fill="rgba(31,35,40,.16)"/>
    <ellipse cx="6" cy="114.5" rx="8" ry="2" fill="#54aeff" opacity=".3"/>
    <ellipse cx="5" cy="113" rx="3.5" ry="1.2" fill="#54aeff" opacity="0" class="splash"/>
    <g class="dogbreathe">
      <rect x="68" y="97" width="24" height="7" rx="3.5" fill="#a97e53" stroke="#7d5c3a" stroke-width="1.2" class="wag"/>
      <rect x="27" y="78" width="7" height="36" rx="3.5" fill="#7d5c3a"/>
      <path d="M28,46 C18,62 15,86 17,112 L68,112 C75,104 78,94 77,84 C74,64 60,50 42,46 Z" fill="#a97e53" stroke="#7d5c3a" stroke-width="1.5"/>
      <path d="M44,74 C56,72 66,80 68,94" fill="none" stroke="#7d5c3a" stroke-width="1.2" opacity=".6"/>
      <rect x="17" y="74" width="7" height="40" rx="3.5" fill="#a97e53" stroke="#7d5c3a" stroke-width="1.2"/>
      <ellipse cx="20" cy="113" rx="5.5" ry="3" fill="#a97e53" stroke="#7d5c3a" stroke-width="1.2"/>
      <ellipse cx="30" cy="113.5" rx="5" ry="2.8" fill="#7d5c3a"/>
      <ellipse cx="34" cy="25" rx="6" ry="11" transform="rotate(18 34 25)" fill="#7d5c3a"/>
      <circle cx="24" cy="32" r="17" fill="#a97e53" stroke="#7d5c3a" stroke-width="1.5"/>
      <ellipse cx="9" cy="27" rx="10" ry="7" transform="rotate(-25 9 27)" fill="#a97e53" stroke="#7d5c3a" stroke-width="1.2"/>
      <circle cx="1.5" cy="20.5" r="2.8" fill="#241a10"/>
      <path d="M3,32 Q6,35 10,34" fill="none" stroke="#7d5c3a" stroke-width="1.2"/>
      <ellipse cx="6" cy="38" rx="2.6" ry="4.5" transform="rotate(-12 6 38)" fill="#e0765f"/>
      <circle cx="20" cy="25" r="4.5" fill="#ffffff"/>
      <circle cx="18.6" cy="23.6" r="2.2" fill="#1f2328"/>
      <circle cx="17.9" cy="22.9" r=".8" fill="#ffffff"/>
      <rect x="11" y="41" width="27" height="6" rx="3" transform="rotate(-14 24 44)" fill="#cf222e"/>
      <g class="tagswing">
        <circle cx="22" cy="48.5" r="1.6" fill="none" stroke="#d4a72c" stroke-width="1.2"/>
        <circle cx="22" cy="56" r="7.5" fill="#d4a72c" stroke="#3b2f00" stroke-width=".8"/>
        <text x="22" y="58.6" text-anchor="middle" font-size="6.5" font-weight="700" fill="#3b2f00">QA</text>
      </g>
      <path d="M5,41.5 q-.6,2.5 .2,4" fill="none" stroke="#54aeff" stroke-width="1.8" stroke-linecap="round" opacity=".8"/>
      <circle cx="5" cy="45.5" r="2.3" fill="#54aeff" class="drip"/>
    </g>
  </g>

  <!-- tagline -->
  <text x="440" y="464" text-anchor="middle" font-size="11" letter-spacing="4" fill="#59636e">COMPILED HOT · SERVED COLD</text>
</svg>
